<mxfile host="app.diagrams.net" agent="Mozilla/5.0 (Windows NT 10.0; Win64; x64) AppleWebKit/537.36 (KHTML, like Gecko) Chrome/135.0.0.0 Safari/537.36" version="26.2.14" pages="3">
  <diagram name="Friends" id="P2gIDNpjgXlZFAOqAVR4">
    <mxGraphModel dx="1131" dy="1289" grid="0" gridSize="10" guides="1" tooltips="1" connect="1" arrows="1" fold="1" page="0" pageScale="1" pageWidth="827" pageHeight="1169" math="0" shadow="0">
      <root>
        <mxCell id="0" />
        <mxCell id="1" parent="0" />
        <mxCell id="SpJ5ieGmrHYRSq6fWpUB-1" value="" style="group" vertex="1" connectable="0" parent="1">
          <mxGeometry x="117" y="-74" width="80" height="80" as="geometry" />
        </mxCell>
        <mxCell id="SpJ5ieGmrHYRSq6fWpUB-2" value="&lt;font style=&quot;font-size: 16px;&quot;&gt;&lt;br&gt;ReadAnd&lt;br&gt;Relax&lt;/font&gt;" style="ellipse;whiteSpace=wrap;html=1;aspect=fixed;" vertex="1" parent="SpJ5ieGmrHYRSq6fWpUB-1">
          <mxGeometry width="80" height="80" as="geometry" />
        </mxCell>
        <mxCell id="SpJ5ieGmrHYRSq6fWpUB-3" value="4" style="ellipse;whiteSpace=wrap;html=1;aspect=fixed;" vertex="1" parent="SpJ5ieGmrHYRSq6fWpUB-1">
          <mxGeometry x="29" y="7" width="22" height="22" as="geometry" />
        </mxCell>
        <mxCell id="SpJ5ieGmrHYRSq6fWpUB-4" value="" style="group" vertex="1" connectable="0" parent="1">
          <mxGeometry x="31" y="220" width="94" height="94" as="geometry" />
        </mxCell>
        <mxCell id="SpJ5ieGmrHYRSq6fWpUB-5" value="&lt;font style=&quot;font-size: 16px;&quot;&gt;PageTurner&lt;/font&gt;" style="ellipse;whiteSpace=wrap;html=1;aspect=fixed;" vertex="1" parent="SpJ5ieGmrHYRSq6fWpUB-4">
          <mxGeometry width="94" height="94" as="geometry" />
        </mxCell>
        <mxCell id="SpJ5ieGmrHYRSq6fWpUB-6" value="3" style="ellipse;whiteSpace=wrap;html=1;aspect=fixed;" vertex="1" parent="SpJ5ieGmrHYRSq6fWpUB-4">
          <mxGeometry x="36" y="7" width="22" height="22" as="geometry" />
        </mxCell>
        <mxCell id="SpJ5ieGmrHYRSq6fWpUB-7" value="" style="group" vertex="1" connectable="0" parent="1">
          <mxGeometry x="-22" y="-55" width="98" height="98" as="geometry" />
        </mxCell>
        <mxCell id="SpJ5ieGmrHYRSq6fWpUB-8" value="&lt;font style=&quot;font-size: 16px;&quot;&gt;LiteraryFan&lt;/font&gt;" style="ellipse;whiteSpace=wrap;html=1;aspect=fixed;" vertex="1" parent="SpJ5ieGmrHYRSq6fWpUB-7">
          <mxGeometry width="98" height="98" as="geometry" />
        </mxCell>
        <mxCell id="SpJ5ieGmrHYRSq6fWpUB-9" value="2" style="ellipse;whiteSpace=wrap;html=1;aspect=fixed;" vertex="1" parent="SpJ5ieGmrHYRSq6fWpUB-7">
          <mxGeometry x="38" y="9" width="22" height="22" as="geometry" />
        </mxCell>
        <mxCell id="SpJ5ieGmrHYRSq6fWpUB-10" value="" style="group" vertex="1" connectable="0" parent="1">
          <mxGeometry x="-84" y="103" width="102" height="102" as="geometry" />
        </mxCell>
        <mxCell id="SpJ5ieGmrHYRSq6fWpUB-11" value="&lt;font style=&quot;font-size: 16px;&quot;&gt;BookLover42&lt;/font&gt;" style="ellipse;whiteSpace=wrap;html=1;aspect=fixed;" vertex="1" parent="SpJ5ieGmrHYRSq6fWpUB-10">
          <mxGeometry width="102" height="102" as="geometry" />
        </mxCell>
        <mxCell id="SpJ5ieGmrHYRSq6fWpUB-12" value="1" style="ellipse;whiteSpace=wrap;html=1;aspect=fixed;" vertex="1" parent="SpJ5ieGmrHYRSq6fWpUB-10">
          <mxGeometry x="40" y="5" width="22" height="22" as="geometry" />
        </mxCell>
        <mxCell id="SpJ5ieGmrHYRSq6fWpUB-13" value="" style="group" vertex="1" connectable="0" parent="1">
          <mxGeometry x="220" y="229" width="80" height="80" as="geometry" />
        </mxCell>
        <mxCell id="SpJ5ieGmrHYRSq6fWpUB-14" value="&lt;font style=&quot;font-size: 16px;&quot;&gt;&lt;br&gt;Classic&lt;br&gt;Reader&lt;/font&gt;" style="ellipse;whiteSpace=wrap;html=1;aspect=fixed;" vertex="1" parent="SpJ5ieGmrHYRSq6fWpUB-13">
          <mxGeometry width="80" height="80" as="geometry" />
        </mxCell>
        <mxCell id="SpJ5ieGmrHYRSq6fWpUB-15" value="5" style="ellipse;whiteSpace=wrap;html=1;aspect=fixed;" vertex="1" parent="SpJ5ieGmrHYRSq6fWpUB-13">
          <mxGeometry x="29" y="7" width="22" height="22" as="geometry" />
        </mxCell>
        <mxCell id="SpJ5ieGmrHYRSq6fWpUB-16" value="" style="group" vertex="1" connectable="0" parent="1">
          <mxGeometry x="255" y="-80" width="84" height="84" as="geometry" />
        </mxCell>
        <mxCell id="SpJ5ieGmrHYRSq6fWpUB-17" value="&lt;font style=&quot;font-size: 16px;&quot;&gt;&lt;br&gt;Fantasy&lt;br&gt;Explorer&lt;/font&gt;" style="ellipse;whiteSpace=wrap;html=1;aspect=fixed;" vertex="1" parent="SpJ5ieGmrHYRSq6fWpUB-16">
          <mxGeometry width="84" height="84" as="geometry" />
        </mxCell>
        <mxCell id="SpJ5ieGmrHYRSq6fWpUB-18" value="6" style="ellipse;whiteSpace=wrap;html=1;aspect=fixed;" vertex="1" parent="SpJ5ieGmrHYRSq6fWpUB-16">
          <mxGeometry x="31" y="7" width="22" height="22" as="geometry" />
        </mxCell>
        <mxCell id="SpJ5ieGmrHYRSq6fWpUB-19" value="" style="group" vertex="1" connectable="0" parent="1">
          <mxGeometry x="300" y="118" width="97" height="97" as="geometry" />
        </mxCell>
        <mxCell id="SpJ5ieGmrHYRSq6fWpUB-20" value="&lt;font style=&quot;font-size: 16px;&quot;&gt;&lt;br&gt;SciFi&lt;br&gt;Enthusiast&lt;/font&gt;" style="ellipse;whiteSpace=wrap;html=1;aspect=fixed;" vertex="1" parent="SpJ5ieGmrHYRSq6fWpUB-19">
          <mxGeometry width="97" height="97" as="geometry" />
        </mxCell>
        <mxCell id="SpJ5ieGmrHYRSq6fWpUB-21" value="7" style="ellipse;whiteSpace=wrap;html=1;aspect=fixed;" vertex="1" parent="SpJ5ieGmrHYRSq6fWpUB-19">
          <mxGeometry x="37.5" y="9" width="22" height="22" as="geometry" />
        </mxCell>
        <mxCell id="SpJ5ieGmrHYRSq6fWpUB-22" value="" style="group" vertex="1" connectable="0" parent="1">
          <mxGeometry x="194" y="10" width="80" height="80" as="geometry" />
        </mxCell>
        <mxCell id="SpJ5ieGmrHYRSq6fWpUB-23" value="&lt;font style=&quot;font-size: 16px;&quot;&gt;&lt;br&gt;Mystery&lt;br&gt;Lover&lt;/font&gt;" style="ellipse;whiteSpace=wrap;html=1;aspect=fixed;" vertex="1" parent="SpJ5ieGmrHYRSq6fWpUB-22">
          <mxGeometry width="80" height="80" as="geometry" />
        </mxCell>
        <mxCell id="SpJ5ieGmrHYRSq6fWpUB-24" value="8" style="ellipse;whiteSpace=wrap;html=1;aspect=fixed;" vertex="1" parent="SpJ5ieGmrHYRSq6fWpUB-22">
          <mxGeometry x="29" y="7" width="22" height="22" as="geometry" />
        </mxCell>
        <mxCell id="SpJ5ieGmrHYRSq6fWpUB-25" value="" style="group" vertex="1" connectable="0" parent="1">
          <mxGeometry x="332" y="12" width="80" height="80" as="geometry" />
        </mxCell>
        <mxCell id="SpJ5ieGmrHYRSq6fWpUB-26" value="&lt;font style=&quot;font-size: 16px;&quot;&gt;&lt;br&gt;Nonfiction&lt;br&gt;Guru&lt;/font&gt;" style="ellipse;whiteSpace=wrap;html=1;aspect=fixed;" vertex="1" parent="SpJ5ieGmrHYRSq6fWpUB-25">
          <mxGeometry width="80" height="80" as="geometry" />
        </mxCell>
        <mxCell id="SpJ5ieGmrHYRSq6fWpUB-27" value="9" style="ellipse;whiteSpace=wrap;html=1;aspect=fixed;" vertex="1" parent="SpJ5ieGmrHYRSq6fWpUB-25">
          <mxGeometry x="29" y="7" width="22" height="22" as="geometry" />
        </mxCell>
        <mxCell id="SpJ5ieGmrHYRSq6fWpUB-28" value="" style="group" vertex="1" connectable="0" parent="1">
          <mxGeometry x="55" y="30" width="80" height="80" as="geometry" />
        </mxCell>
        <mxCell id="SpJ5ieGmrHYRSq6fWpUB-29" value="&lt;font style=&quot;font-size: 16px;&quot;&gt;&lt;br&gt;Poetry&lt;br&gt;Admirer&lt;/font&gt;" style="ellipse;whiteSpace=wrap;html=1;aspect=fixed;" vertex="1" parent="SpJ5ieGmrHYRSq6fWpUB-28">
          <mxGeometry width="80" height="80" as="geometry" />
        </mxCell>
        <mxCell id="SpJ5ieGmrHYRSq6fWpUB-30" value="10" style="ellipse;whiteSpace=wrap;html=1;aspect=fixed;" vertex="1" parent="SpJ5ieGmrHYRSq6fWpUB-28">
          <mxGeometry x="29" y="7" width="22" height="22" as="geometry" />
        </mxCell>
        <mxCell id="SpJ5ieGmrHYRSq6fWpUB-49" style="edgeStyle=none;curved=1;rounded=0;orthogonalLoop=1;jettySize=auto;html=1;exitX=1;exitY=0;exitDx=0;exitDy=0;fontSize=12;startSize=8;endSize=8;endArrow=none;startFill=0;" edge="1" parent="1" source="SpJ5ieGmrHYRSq6fWpUB-11" target="SpJ5ieGmrHYRSq6fWpUB-8">
          <mxGeometry relative="1" as="geometry" />
        </mxCell>
        <mxCell id="SpJ5ieGmrHYRSq6fWpUB-50" style="edgeStyle=none;curved=1;rounded=0;orthogonalLoop=1;jettySize=auto;html=1;fontSize=12;startSize=8;endSize=8;endArrow=none;startFill=0;" edge="1" parent="1" source="SpJ5ieGmrHYRSq6fWpUB-11" target="SpJ5ieGmrHYRSq6fWpUB-5">
          <mxGeometry relative="1" as="geometry" />
        </mxCell>
        <mxCell id="SpJ5ieGmrHYRSq6fWpUB-51" style="edgeStyle=none;curved=1;rounded=0;orthogonalLoop=1;jettySize=auto;html=1;fontSize=12;startSize=8;endSize=8;endArrow=none;startFill=0;" edge="1" parent="1" source="SpJ5ieGmrHYRSq6fWpUB-8" target="SpJ5ieGmrHYRSq6fWpUB-2">
          <mxGeometry relative="1" as="geometry" />
        </mxCell>
        <mxCell id="SpJ5ieGmrHYRSq6fWpUB-52" style="edgeStyle=none;curved=1;rounded=0;orthogonalLoop=1;jettySize=auto;html=1;exitX=1;exitY=0.5;exitDx=0;exitDy=0;fontSize=12;startSize=8;endSize=8;endArrow=none;startFill=0;" edge="1" parent="1" source="SpJ5ieGmrHYRSq6fWpUB-5" target="SpJ5ieGmrHYRSq6fWpUB-14">
          <mxGeometry relative="1" as="geometry" />
        </mxCell>
        <mxCell id="SpJ5ieGmrHYRSq6fWpUB-53" style="edgeStyle=none;curved=1;rounded=0;orthogonalLoop=1;jettySize=auto;html=1;exitX=1;exitY=0.5;exitDx=0;exitDy=0;fontSize=12;startSize=8;endSize=8;endArrow=none;startFill=0;" edge="1" parent="1" source="SpJ5ieGmrHYRSq6fWpUB-2" target="SpJ5ieGmrHYRSq6fWpUB-17">
          <mxGeometry relative="1" as="geometry" />
        </mxCell>
        <mxCell id="SpJ5ieGmrHYRSq6fWpUB-54" style="edgeStyle=none;curved=1;rounded=0;orthogonalLoop=1;jettySize=auto;html=1;exitX=1;exitY=0;exitDx=0;exitDy=0;fontSize=12;startSize=8;endSize=8;endArrow=none;startFill=0;" edge="1" parent="1" source="SpJ5ieGmrHYRSq6fWpUB-14" target="SpJ5ieGmrHYRSq6fWpUB-20">
          <mxGeometry relative="1" as="geometry" />
        </mxCell>
        <mxCell id="SpJ5ieGmrHYRSq6fWpUB-55" style="edgeStyle=none;curved=1;rounded=0;orthogonalLoop=1;jettySize=auto;html=1;exitX=0.5;exitY=1;exitDx=0;exitDy=0;fontSize=12;startSize=8;endSize=8;endArrow=none;startFill=0;" edge="1" parent="1" source="SpJ5ieGmrHYRSq6fWpUB-17" target="SpJ5ieGmrHYRSq6fWpUB-23">
          <mxGeometry relative="1" as="geometry" />
        </mxCell>
        <mxCell id="SpJ5ieGmrHYRSq6fWpUB-56" style="edgeStyle=none;curved=1;rounded=0;orthogonalLoop=1;jettySize=auto;html=1;exitX=0.5;exitY=0;exitDx=0;exitDy=0;entryX=0.3;entryY=0.933;entryDx=0;entryDy=0;entryPerimeter=0;fontSize=12;startSize=8;endSize=8;endArrow=none;startFill=0;" edge="1" parent="1" source="SpJ5ieGmrHYRSq6fWpUB-20" target="SpJ5ieGmrHYRSq6fWpUB-26">
          <mxGeometry relative="1" as="geometry" />
        </mxCell>
        <mxCell id="SpJ5ieGmrHYRSq6fWpUB-57" style="edgeStyle=none;curved=1;rounded=0;orthogonalLoop=1;jettySize=auto;html=1;exitX=0.025;exitY=0.598;exitDx=0;exitDy=0;fontSize=12;startSize=8;endSize=8;exitPerimeter=0;endArrow=none;startFill=0;" edge="1" parent="1" source="SpJ5ieGmrHYRSq6fWpUB-23" target="SpJ5ieGmrHYRSq6fWpUB-29">
          <mxGeometry relative="1" as="geometry" />
        </mxCell>
        <mxCell id="SpJ5ieGmrHYRSq6fWpUB-58" style="edgeStyle=none;curved=1;rounded=0;orthogonalLoop=1;jettySize=auto;html=1;exitX=0;exitY=1;exitDx=0;exitDy=0;fontSize=12;startSize=8;endSize=8;endArrow=none;startFill=0;" edge="1" parent="1" source="SpJ5ieGmrHYRSq6fWpUB-26" target="SpJ5ieGmrHYRSq6fWpUB-11">
          <mxGeometry relative="1" as="geometry" />
        </mxCell>
      </root>
    </mxGraphModel>
  </diagram>
  <diagram id="mQUgbXftCE7Wk1VfG9o1" name="Recommends">
    <mxGraphModel dx="1253" dy="637" grid="0" gridSize="10" guides="1" tooltips="1" connect="1" arrows="1" fold="1" page="0" pageScale="1" pageWidth="827" pageHeight="1169" math="0" shadow="0">
      <root>
        <mxCell id="0" />
        <mxCell id="1" parent="0" />
        <mxCell id="tOZ5-yris6ZTZ968X6ZH-1" value="" style="group" vertex="1" connectable="0" parent="1">
          <mxGeometry x="437" y="414" width="80" height="80" as="geometry" />
        </mxCell>
        <mxCell id="tOZ5-yris6ZTZ968X6ZH-2" value="&lt;font style=&quot;font-size: 16px;&quot;&gt;&lt;br&gt;ReadAnd&lt;br&gt;Relax&lt;/font&gt;" style="ellipse;whiteSpace=wrap;html=1;aspect=fixed;" vertex="1" parent="tOZ5-yris6ZTZ968X6ZH-1">
          <mxGeometry width="80" height="80" as="geometry" />
        </mxCell>
        <mxCell id="tOZ5-yris6ZTZ968X6ZH-3" value="4" style="ellipse;whiteSpace=wrap;html=1;aspect=fixed;" vertex="1" parent="tOZ5-yris6ZTZ968X6ZH-1">
          <mxGeometry x="29" y="7" width="22" height="22" as="geometry" />
        </mxCell>
        <mxCell id="tOZ5-yris6ZTZ968X6ZH-4" value="" style="group" vertex="1" connectable="0" parent="1">
          <mxGeometry x="-71" y="702" width="94" height="94" as="geometry" />
        </mxCell>
        <mxCell id="tOZ5-yris6ZTZ968X6ZH-5" value="&lt;font style=&quot;font-size: 16px;&quot;&gt;PageTurner&lt;/font&gt;" style="ellipse;whiteSpace=wrap;html=1;aspect=fixed;" vertex="1" parent="tOZ5-yris6ZTZ968X6ZH-4">
          <mxGeometry width="94" height="94" as="geometry" />
        </mxCell>
        <mxCell id="tOZ5-yris6ZTZ968X6ZH-6" value="3" style="ellipse;whiteSpace=wrap;html=1;aspect=fixed;" vertex="1" parent="tOZ5-yris6ZTZ968X6ZH-4">
          <mxGeometry x="36" y="7" width="22" height="22" as="geometry" />
        </mxCell>
        <mxCell id="tOZ5-yris6ZTZ968X6ZH-7" value="" style="group" vertex="1" connectable="0" parent="1">
          <mxGeometry x="230" y="405" width="98" height="98" as="geometry" />
        </mxCell>
        <mxCell id="tOZ5-yris6ZTZ968X6ZH-8" value="&lt;font style=&quot;font-size: 16px;&quot;&gt;LiteraryFan&lt;/font&gt;" style="ellipse;whiteSpace=wrap;html=1;aspect=fixed;" vertex="1" parent="tOZ5-yris6ZTZ968X6ZH-7">
          <mxGeometry width="98" height="98" as="geometry" />
        </mxCell>
        <mxCell id="tOZ5-yris6ZTZ968X6ZH-9" value="2" style="ellipse;whiteSpace=wrap;html=1;aspect=fixed;" vertex="1" parent="tOZ5-yris6ZTZ968X6ZH-7">
          <mxGeometry x="38" y="9" width="22" height="22" as="geometry" />
        </mxCell>
        <mxCell id="tOZ5-yris6ZTZ968X6ZH-10" value="" style="group" vertex="1" connectable="0" parent="1">
          <mxGeometry x="-9" y="403" width="102" height="102" as="geometry" />
        </mxCell>
        <mxCell id="tOZ5-yris6ZTZ968X6ZH-11" value="&lt;font style=&quot;font-size: 16px;&quot;&gt;BookLover42&lt;/font&gt;" style="ellipse;whiteSpace=wrap;html=1;aspect=fixed;" vertex="1" parent="tOZ5-yris6ZTZ968X6ZH-10">
          <mxGeometry width="102" height="102" as="geometry" />
        </mxCell>
        <mxCell id="tOZ5-yris6ZTZ968X6ZH-12" value="1" style="ellipse;whiteSpace=wrap;html=1;aspect=fixed;" vertex="1" parent="tOZ5-yris6ZTZ968X6ZH-10">
          <mxGeometry x="40" y="5" width="22" height="22" as="geometry" />
        </mxCell>
        <mxCell id="tOZ5-yris6ZTZ968X6ZH-13" value="" style="group" vertex="1" connectable="0" parent="1">
          <mxGeometry x="561" y="414" width="80" height="80" as="geometry" />
        </mxCell>
        <mxCell id="tOZ5-yris6ZTZ968X6ZH-14" value="&lt;font style=&quot;font-size: 16px;&quot;&gt;&lt;br&gt;Classic&lt;br&gt;Reader&lt;/font&gt;" style="ellipse;whiteSpace=wrap;html=1;aspect=fixed;" vertex="1" parent="tOZ5-yris6ZTZ968X6ZH-13">
          <mxGeometry width="80" height="80" as="geometry" />
        </mxCell>
        <mxCell id="tOZ5-yris6ZTZ968X6ZH-15" value="5" style="ellipse;whiteSpace=wrap;html=1;aspect=fixed;" vertex="1" parent="tOZ5-yris6ZTZ968X6ZH-13">
          <mxGeometry x="29" y="7" width="22" height="22" as="geometry" />
        </mxCell>
        <mxCell id="tOZ5-yris6ZTZ968X6ZH-16" value="" style="group" vertex="1" connectable="0" parent="1">
          <mxGeometry x="431" y="855.5" width="84" height="84" as="geometry" />
        </mxCell>
        <mxCell id="tOZ5-yris6ZTZ968X6ZH-17" value="&lt;font style=&quot;font-size: 16px;&quot;&gt;&lt;br&gt;Fantasy&lt;br&gt;Explorer&lt;/font&gt;" style="ellipse;whiteSpace=wrap;html=1;aspect=fixed;" vertex="1" parent="tOZ5-yris6ZTZ968X6ZH-16">
          <mxGeometry width="84" height="84" as="geometry" />
        </mxCell>
        <mxCell id="tOZ5-yris6ZTZ968X6ZH-18" value="6" style="ellipse;whiteSpace=wrap;html=1;aspect=fixed;" vertex="1" parent="tOZ5-yris6ZTZ968X6ZH-16">
          <mxGeometry x="31" y="7" width="22" height="22" as="geometry" />
        </mxCell>
        <mxCell id="tOZ5-yris6ZTZ968X6ZH-19" value="" style="group" vertex="1" connectable="0" parent="1">
          <mxGeometry x="165" y="849" width="97" height="97" as="geometry" />
        </mxCell>
        <mxCell id="tOZ5-yris6ZTZ968X6ZH-20" value="&lt;font style=&quot;font-size: 16px;&quot;&gt;&lt;br&gt;SciFi&lt;br&gt;Enthusiast&lt;/font&gt;" style="ellipse;whiteSpace=wrap;html=1;aspect=fixed;" vertex="1" parent="tOZ5-yris6ZTZ968X6ZH-19">
          <mxGeometry width="97" height="97" as="geometry" />
        </mxCell>
        <mxCell id="tOZ5-yris6ZTZ968X6ZH-21" value="7" style="ellipse;whiteSpace=wrap;html=1;aspect=fixed;" vertex="1" parent="tOZ5-yris6ZTZ968X6ZH-19">
          <mxGeometry x="37.5" y="9" width="22" height="22" as="geometry" />
        </mxCell>
        <mxCell id="tOZ5-yris6ZTZ968X6ZH-22" value="" style="group" vertex="1" connectable="0" parent="1">
          <mxGeometry x="315" y="857.5" width="80" height="80" as="geometry" />
        </mxCell>
        <mxCell id="tOZ5-yris6ZTZ968X6ZH-23" value="&lt;font style=&quot;font-size: 16px;&quot;&gt;&lt;br&gt;Mystery&lt;br&gt;Lover&lt;/font&gt;" style="ellipse;whiteSpace=wrap;html=1;aspect=fixed;" vertex="1" parent="tOZ5-yris6ZTZ968X6ZH-22">
          <mxGeometry width="80" height="80" as="geometry" />
        </mxCell>
        <mxCell id="tOZ5-yris6ZTZ968X6ZH-24" value="8" style="ellipse;whiteSpace=wrap;html=1;aspect=fixed;" vertex="1" parent="tOZ5-yris6ZTZ968X6ZH-22">
          <mxGeometry x="29" y="7" width="22" height="22" as="geometry" />
        </mxCell>
        <mxCell id="tOZ5-yris6ZTZ968X6ZH-25" value="" style="group" vertex="1" connectable="0" parent="1">
          <mxGeometry x="122" y="412" width="80" height="80" as="geometry" />
        </mxCell>
        <mxCell id="tOZ5-yris6ZTZ968X6ZH-26" value="&lt;font style=&quot;font-size: 16px;&quot;&gt;&lt;br&gt;Nonfiction&lt;br&gt;Guru&lt;/font&gt;" style="ellipse;whiteSpace=wrap;html=1;aspect=fixed;" vertex="1" parent="tOZ5-yris6ZTZ968X6ZH-25">
          <mxGeometry width="80" height="80" as="geometry" />
        </mxCell>
        <mxCell id="tOZ5-yris6ZTZ968X6ZH-27" value="9" style="ellipse;whiteSpace=wrap;html=1;aspect=fixed;" vertex="1" parent="tOZ5-yris6ZTZ968X6ZH-25">
          <mxGeometry x="29" y="7" width="22" height="22" as="geometry" />
        </mxCell>
        <mxCell id="tOZ5-yris6ZTZ968X6ZH-41" value="" style="group" vertex="1" connectable="0" parent="1">
          <mxGeometry x="561" y="542" width="80" height="80" as="geometry" />
        </mxCell>
        <mxCell id="tOZ5-yris6ZTZ968X6ZH-42" value="&lt;br&gt;&lt;br&gt;Атлант расправил плечи" style="whiteSpace=wrap;html=1;aspect=fixed;" vertex="1" parent="tOZ5-yris6ZTZ968X6ZH-41">
          <mxGeometry width="80" height="80" as="geometry" />
        </mxCell>
        <mxCell id="tOZ5-yris6ZTZ968X6ZH-43" value="7" style="whiteSpace=wrap;html=1;aspect=fixed;" vertex="1" parent="tOZ5-yris6ZTZ968X6ZH-41">
          <mxGeometry x="26" width="28" height="28" as="geometry" />
        </mxCell>
        <mxCell id="tOZ5-yris6ZTZ968X6ZH-44" value="" style="group" vertex="1" connectable="0" parent="1">
          <mxGeometry x="173.5" y="731" width="80" height="80" as="geometry" />
        </mxCell>
        <mxCell id="tOZ5-yris6ZTZ968X6ZH-45" value="&lt;br&gt;Собачье сердце" style="whiteSpace=wrap;html=1;aspect=fixed;" vertex="1" parent="tOZ5-yris6ZTZ968X6ZH-44">
          <mxGeometry x="-1.5" y="-7" width="80" height="80" as="geometry" />
        </mxCell>
        <mxCell id="tOZ5-yris6ZTZ968X6ZH-46" value="9" style="whiteSpace=wrap;html=1;aspect=fixed;" vertex="1" parent="tOZ5-yris6ZTZ968X6ZH-44">
          <mxGeometry x="26" width="28" height="28" as="geometry" />
        </mxCell>
        <mxCell id="tOZ5-yris6ZTZ968X6ZH-47" value="" style="group" vertex="1" connectable="0" parent="1">
          <mxGeometry x="60" y="542" width="93" height="93" as="geometry" />
        </mxCell>
        <mxCell id="tOZ5-yris6ZTZ968X6ZH-48" value="&lt;br&gt;&lt;br&gt;Гарри Поттер и философский камень" style="whiteSpace=wrap;html=1;aspect=fixed;" vertex="1" parent="tOZ5-yris6ZTZ968X6ZH-47">
          <mxGeometry width="93" height="93" as="geometry" />
        </mxCell>
        <mxCell id="tOZ5-yris6ZTZ968X6ZH-49" value="4" style="whiteSpace=wrap;html=1;aspect=fixed;" vertex="1" parent="tOZ5-yris6ZTZ968X6ZH-47">
          <mxGeometry x="32.5" width="28" height="28" as="geometry" />
        </mxCell>
        <mxCell id="tOZ5-yris6ZTZ968X6ZH-50" value="" style="group" vertex="1" connectable="0" parent="1">
          <mxGeometry x="437" y="542" width="80" height="80" as="geometry" />
        </mxCell>
        <mxCell id="tOZ5-yris6ZTZ968X6ZH-51" value="&lt;br&gt;Тень горы" style="whiteSpace=wrap;html=1;aspect=fixed;" vertex="1" parent="tOZ5-yris6ZTZ968X6ZH-50">
          <mxGeometry width="80" height="80" as="geometry" />
        </mxCell>
        <mxCell id="tOZ5-yris6ZTZ968X6ZH-52" value="6" style="whiteSpace=wrap;html=1;aspect=fixed;" vertex="1" parent="tOZ5-yris6ZTZ968X6ZH-50">
          <mxGeometry x="26" width="28" height="28" as="geometry" />
        </mxCell>
        <mxCell id="tOZ5-yris6ZTZ968X6ZH-53" value="" style="group" vertex="1" connectable="0" parent="1">
          <mxGeometry x="300" y="542" width="80" height="80" as="geometry" />
        </mxCell>
        <mxCell id="tOZ5-yris6ZTZ968X6ZH-54" value="&lt;br&gt;Властелин колец" style="whiteSpace=wrap;html=1;aspect=fixed;" vertex="1" parent="tOZ5-yris6ZTZ968X6ZH-53">
          <mxGeometry width="80" height="80" as="geometry" />
        </mxCell>
        <mxCell id="tOZ5-yris6ZTZ968X6ZH-55" value="5" style="whiteSpace=wrap;html=1;aspect=fixed;" vertex="1" parent="tOZ5-yris6ZTZ968X6ZH-53">
          <mxGeometry x="26" width="28" height="28" as="geometry" />
        </mxCell>
        <mxCell id="tOZ5-yris6ZTZ968X6ZH-56" value="" style="group" vertex="1" connectable="0" parent="1">
          <mxGeometry x="315" y="728" width="80" height="80" as="geometry" />
        </mxCell>
        <mxCell id="tOZ5-yris6ZTZ968X6ZH-57" value="&lt;br&gt;Шерлок Холмс" style="whiteSpace=wrap;html=1;aspect=fixed;" vertex="1" parent="tOZ5-yris6ZTZ968X6ZH-56">
          <mxGeometry width="80" height="80" as="geometry" />
        </mxCell>
        <mxCell id="tOZ5-yris6ZTZ968X6ZH-58" value="10" style="whiteSpace=wrap;html=1;aspect=fixed;" vertex="1" parent="tOZ5-yris6ZTZ968X6ZH-56">
          <mxGeometry x="26" width="28" height="28" as="geometry" />
        </mxCell>
        <mxCell id="tOZ5-yris6ZTZ968X6ZH-59" value="" style="group" vertex="1" connectable="0" parent="1">
          <mxGeometry x="66.5" y="728" width="80" height="80" as="geometry" />
        </mxCell>
        <mxCell id="tOZ5-yris6ZTZ968X6ZH-60" value="&lt;br&gt;Преступление и наказание" style="whiteSpace=wrap;html=1;aspect=fixed;" vertex="1" parent="tOZ5-yris6ZTZ968X6ZH-59">
          <mxGeometry width="80" height="80" as="geometry" />
        </mxCell>
        <mxCell id="tOZ5-yris6ZTZ968X6ZH-61" value="3" style="whiteSpace=wrap;html=1;aspect=fixed;" vertex="1" parent="tOZ5-yris6ZTZ968X6ZH-59">
          <mxGeometry x="26" width="28" height="28" as="geometry" />
        </mxCell>
        <mxCell id="tOZ5-yris6ZTZ968X6ZH-62" value="" style="group" vertex="1" connectable="0" parent="1">
          <mxGeometry x="182" y="542" width="80" height="80" as="geometry" />
        </mxCell>
        <mxCell id="tOZ5-yris6ZTZ968X6ZH-63" value="&lt;br&gt;Мастер и Маргарита" style="whiteSpace=wrap;html=1;aspect=fixed;" vertex="1" parent="tOZ5-yris6ZTZ968X6ZH-62">
          <mxGeometry width="80" height="80" as="geometry" />
        </mxCell>
        <mxCell id="tOZ5-yris6ZTZ968X6ZH-64" value="2" style="whiteSpace=wrap;html=1;aspect=fixed;" vertex="1" parent="tOZ5-yris6ZTZ968X6ZH-62">
          <mxGeometry x="26" width="28" height="28" as="geometry" />
        </mxCell>
        <mxCell id="tOZ5-yris6ZTZ968X6ZH-65" value="" style="group" vertex="1" connectable="0" parent="1">
          <mxGeometry x="-64" y="548.5" width="80" height="80" as="geometry" />
        </mxCell>
        <mxCell id="tOZ5-yris6ZTZ968X6ZH-66" value="1984" style="whiteSpace=wrap;html=1;aspect=fixed;" vertex="1" parent="tOZ5-yris6ZTZ968X6ZH-65">
          <mxGeometry width="80" height="80" as="geometry" />
        </mxCell>
        <mxCell id="tOZ5-yris6ZTZ968X6ZH-67" value="1" style="whiteSpace=wrap;html=1;aspect=fixed;" vertex="1" parent="tOZ5-yris6ZTZ968X6ZH-65">
          <mxGeometry x="26" width="28" height="28" as="geometry" />
        </mxCell>
        <mxCell id="tOZ5-yris6ZTZ968X6ZH-68" value="" style="group" vertex="1" connectable="0" parent="1">
          <mxGeometry x="435" y="727" width="80" height="80" as="geometry" />
        </mxCell>
        <mxCell id="tOZ5-yris6ZTZ968X6ZH-69" value="&lt;br&gt;Маленький принц" style="whiteSpace=wrap;html=1;aspect=fixed;" vertex="1" parent="tOZ5-yris6ZTZ968X6ZH-68">
          <mxGeometry width="80" height="80" as="geometry" />
        </mxCell>
        <mxCell id="tOZ5-yris6ZTZ968X6ZH-70" value="8" style="whiteSpace=wrap;html=1;aspect=fixed;" vertex="1" parent="tOZ5-yris6ZTZ968X6ZH-68">
          <mxGeometry x="26" width="28" height="28" as="geometry" />
        </mxCell>
        <mxCell id="tOZ5-yris6ZTZ968X6ZH-71" style="edgeStyle=none;curved=1;rounded=0;orthogonalLoop=1;jettySize=auto;html=1;exitX=0;exitY=1;exitDx=0;exitDy=0;entryX=0.5;entryY=0;entryDx=0;entryDy=0;fontSize=12;startSize=8;endSize=8;" edge="1" parent="1" source="tOZ5-yris6ZTZ968X6ZH-11" target="tOZ5-yris6ZTZ968X6ZH-67">
          <mxGeometry relative="1" as="geometry" />
        </mxCell>
        <mxCell id="tOZ5-yris6ZTZ968X6ZH-72" style="edgeStyle=none;curved=1;rounded=0;orthogonalLoop=1;jettySize=auto;html=1;exitX=1;exitY=1;exitDx=0;exitDy=0;entryX=0.5;entryY=0;entryDx=0;entryDy=0;fontSize=12;startSize=8;endSize=8;" edge="1" parent="1" source="tOZ5-yris6ZTZ968X6ZH-11" target="tOZ5-yris6ZTZ968X6ZH-49">
          <mxGeometry relative="1" as="geometry" />
        </mxCell>
        <mxCell id="tOZ5-yris6ZTZ968X6ZH-73" style="edgeStyle=none;curved=1;rounded=0;orthogonalLoop=1;jettySize=auto;html=1;exitX=0;exitY=1;exitDx=0;exitDy=0;entryX=0.5;entryY=0;entryDx=0;entryDy=0;fontSize=12;startSize=8;endSize=8;" edge="1" parent="1" source="tOZ5-yris6ZTZ968X6ZH-8" target="tOZ5-yris6ZTZ968X6ZH-64">
          <mxGeometry relative="1" as="geometry" />
        </mxCell>
        <mxCell id="tOZ5-yris6ZTZ968X6ZH-74" style="edgeStyle=none;curved=1;rounded=0;orthogonalLoop=1;jettySize=auto;html=1;exitX=1;exitY=1;exitDx=0;exitDy=0;fontSize=12;startSize=8;endSize=8;" edge="1" parent="1" source="tOZ5-yris6ZTZ968X6ZH-8" target="tOZ5-yris6ZTZ968X6ZH-55">
          <mxGeometry relative="1" as="geometry" />
        </mxCell>
        <mxCell id="tOZ5-yris6ZTZ968X6ZH-75" style="edgeStyle=none;curved=1;rounded=0;orthogonalLoop=1;jettySize=auto;html=1;exitX=0.5;exitY=0;exitDx=0;exitDy=0;fontSize=12;startSize=8;endSize=8;" edge="1" parent="1" source="tOZ5-yris6ZTZ968X6ZH-5" target="tOZ5-yris6ZTZ968X6ZH-66">
          <mxGeometry relative="1" as="geometry" />
        </mxCell>
        <mxCell id="tOZ5-yris6ZTZ968X6ZH-76" style="edgeStyle=none;curved=1;rounded=0;orthogonalLoop=1;jettySize=auto;html=1;exitX=1;exitY=0.5;exitDx=0;exitDy=0;entryX=0;entryY=0.5;entryDx=0;entryDy=0;fontSize=12;startSize=8;endSize=8;" edge="1" parent="1" source="tOZ5-yris6ZTZ968X6ZH-5" target="tOZ5-yris6ZTZ968X6ZH-60">
          <mxGeometry relative="1" as="geometry" />
        </mxCell>
        <mxCell id="tOZ5-yris6ZTZ968X6ZH-77" style="edgeStyle=none;curved=1;rounded=0;orthogonalLoop=1;jettySize=auto;html=1;exitX=0.5;exitY=1;exitDx=0;exitDy=0;fontSize=12;startSize=8;endSize=8;" edge="1" parent="1" source="tOZ5-yris6ZTZ968X6ZH-2" target="tOZ5-yris6ZTZ968X6ZH-52">
          <mxGeometry relative="1" as="geometry" />
        </mxCell>
        <mxCell id="tOZ5-yris6ZTZ968X6ZH-78" style="edgeStyle=none;curved=1;rounded=0;orthogonalLoop=1;jettySize=auto;html=1;exitX=0.5;exitY=1;exitDx=0;exitDy=0;entryX=0.5;entryY=0;entryDx=0;entryDy=0;fontSize=12;startSize=8;endSize=8;" edge="1" parent="1" source="tOZ5-yris6ZTZ968X6ZH-14" target="tOZ5-yris6ZTZ968X6ZH-43">
          <mxGeometry relative="1" as="geometry" />
        </mxCell>
        <mxCell id="tOZ5-yris6ZTZ968X6ZH-79" style="edgeStyle=none;curved=1;rounded=0;orthogonalLoop=1;jettySize=auto;html=1;exitX=0.5;exitY=0;exitDx=0;exitDy=0;fontSize=12;startSize=8;endSize=8;entryX=0.5;entryY=1;entryDx=0;entryDy=0;" edge="1" parent="1" source="tOZ5-yris6ZTZ968X6ZH-17" target="tOZ5-yris6ZTZ968X6ZH-69">
          <mxGeometry relative="1" as="geometry" />
        </mxCell>
        <mxCell id="tOZ5-yris6ZTZ968X6ZH-80" style="edgeStyle=none;curved=1;rounded=0;orthogonalLoop=1;jettySize=auto;html=1;exitX=0.5;exitY=0;exitDx=0;exitDy=0;entryX=0.5;entryY=1;entryDx=0;entryDy=0;fontSize=12;startSize=8;endSize=8;" edge="1" parent="1" source="tOZ5-yris6ZTZ968X6ZH-20" target="tOZ5-yris6ZTZ968X6ZH-45">
          <mxGeometry relative="1" as="geometry" />
        </mxCell>
        <mxCell id="tOZ5-yris6ZTZ968X6ZH-81" style="edgeStyle=none;curved=1;rounded=0;orthogonalLoop=1;jettySize=auto;html=1;exitX=0.5;exitY=1;exitDx=0;exitDy=0;entryX=0.5;entryY=0;entryDx=0;entryDy=0;fontSize=12;startSize=8;endSize=8;" edge="1" parent="1" source="tOZ5-yris6ZTZ968X6ZH-26" target="tOZ5-yris6ZTZ968X6ZH-49">
          <mxGeometry relative="1" as="geometry" />
        </mxCell>
        <mxCell id="tOZ5-yris6ZTZ968X6ZH-82" style="edgeStyle=none;curved=1;rounded=0;orthogonalLoop=1;jettySize=auto;html=1;exitX=0.5;exitY=0;exitDx=0;exitDy=0;fontSize=12;startSize=8;endSize=8;" edge="1" parent="1" source="tOZ5-yris6ZTZ968X6ZH-23" target="tOZ5-yris6ZTZ968X6ZH-57">
          <mxGeometry relative="1" as="geometry" />
        </mxCell>
      </root>
    </mxGraphModel>
  </diagram>
  <diagram id="PhrD7CCjdwgauVjO8QFd" name="WrittenBy">
    <mxGraphModel dx="1188" dy="557" grid="0" gridSize="10" guides="1" tooltips="1" connect="1" arrows="1" fold="1" page="0" pageScale="1" pageWidth="827" pageHeight="1169" math="0" shadow="0">
      <root>
        <mxCell id="0" />
        <mxCell id="1" parent="0" />
        <mxCell id="gqrzmjEzwZpDXoRNlh4M-1" value="" style="group" vertex="1" connectable="0" parent="1">
          <mxGeometry x="270" y="670" width="80" height="80" as="geometry" />
        </mxCell>
        <mxCell id="gqrzmjEzwZpDXoRNlh4M-2" value="&lt;font style=&quot;font-size: 16px;&quot;&gt;Роулинг&lt;/font&gt;" style="ellipse;whiteSpace=wrap;html=1;aspect=fixed;" vertex="1" parent="gqrzmjEzwZpDXoRNlh4M-1">
          <mxGeometry width="80" height="80" as="geometry" />
        </mxCell>
        <mxCell id="gqrzmjEzwZpDXoRNlh4M-3" value="4" style="ellipse;whiteSpace=wrap;html=1;aspect=fixed;" vertex="1" parent="gqrzmjEzwZpDXoRNlh4M-1">
          <mxGeometry x="29" y="7" width="22" height="22" as="geometry" />
        </mxCell>
        <mxCell id="gqrzmjEzwZpDXoRNlh4M-4" value="" style="group" vertex="1" connectable="0" parent="1">
          <mxGeometry x="141" y="661" width="106" height="106" as="geometry" />
        </mxCell>
        <mxCell id="gqrzmjEzwZpDXoRNlh4M-5" value="&lt;font style=&quot;font-size: 16px;&quot;&gt;Достоевский&lt;/font&gt;" style="ellipse;whiteSpace=wrap;html=1;aspect=fixed;" vertex="1" parent="gqrzmjEzwZpDXoRNlh4M-4">
          <mxGeometry width="106" height="106" as="geometry" />
        </mxCell>
        <mxCell id="gqrzmjEzwZpDXoRNlh4M-6" value="3" style="ellipse;whiteSpace=wrap;html=1;aspect=fixed;" vertex="1" parent="gqrzmjEzwZpDXoRNlh4M-4">
          <mxGeometry x="42" y="6" width="22" height="22" as="geometry" />
        </mxCell>
        <mxCell id="gqrzmjEzwZpDXoRNlh4M-7" value="" style="group" vertex="1" connectable="0" parent="1">
          <mxGeometry x="47" y="661" width="80" height="80" as="geometry" />
        </mxCell>
        <mxCell id="gqrzmjEzwZpDXoRNlh4M-8" value="&lt;font style=&quot;font-size: 16px;&quot;&gt;Булгаков&lt;/font&gt;" style="ellipse;whiteSpace=wrap;html=1;aspect=fixed;" vertex="1" parent="gqrzmjEzwZpDXoRNlh4M-7">
          <mxGeometry width="80" height="80" as="geometry" />
        </mxCell>
        <mxCell id="gqrzmjEzwZpDXoRNlh4M-9" value="2" style="ellipse;whiteSpace=wrap;html=1;aspect=fixed;" vertex="1" parent="gqrzmjEzwZpDXoRNlh4M-7">
          <mxGeometry x="29" y="7" width="22" height="22" as="geometry" />
        </mxCell>
        <mxCell id="gqrzmjEzwZpDXoRNlh4M-10" value="" style="group" vertex="1" connectable="0" parent="1">
          <mxGeometry x="-64" y="661" width="80" height="80" as="geometry" />
        </mxCell>
        <mxCell id="gqrzmjEzwZpDXoRNlh4M-11" value="&lt;font style=&quot;font-size: 16px;&quot;&gt;Оруэлл&lt;/font&gt;" style="ellipse;whiteSpace=wrap;html=1;aspect=fixed;" vertex="1" parent="gqrzmjEzwZpDXoRNlh4M-10">
          <mxGeometry width="80" height="80" as="geometry" />
        </mxCell>
        <mxCell id="gqrzmjEzwZpDXoRNlh4M-12" value="1" style="ellipse;whiteSpace=wrap;html=1;aspect=fixed;" vertex="1" parent="gqrzmjEzwZpDXoRNlh4M-10">
          <mxGeometry x="29" y="7" width="22" height="22" as="geometry" />
        </mxCell>
        <mxCell id="gqrzmjEzwZpDXoRNlh4M-13" value="" style="group" vertex="1" connectable="0" parent="1">
          <mxGeometry x="377" y="670" width="80" height="80" as="geometry" />
        </mxCell>
        <mxCell id="gqrzmjEzwZpDXoRNlh4M-14" value="&lt;font style=&quot;font-size: 16px;&quot;&gt;Толкин&lt;/font&gt;" style="ellipse;whiteSpace=wrap;html=1;aspect=fixed;" vertex="1" parent="gqrzmjEzwZpDXoRNlh4M-13">
          <mxGeometry width="80" height="80" as="geometry" />
        </mxCell>
        <mxCell id="gqrzmjEzwZpDXoRNlh4M-15" value="5" style="ellipse;whiteSpace=wrap;html=1;aspect=fixed;" vertex="1" parent="gqrzmjEzwZpDXoRNlh4M-13">
          <mxGeometry x="29" y="7" width="22" height="22" as="geometry" />
        </mxCell>
        <mxCell id="gqrzmjEzwZpDXoRNlh4M-16" value="" style="group" vertex="1" connectable="0" parent="1">
          <mxGeometry x="-64" y="896" width="80" height="80" as="geometry" />
        </mxCell>
        <mxCell id="gqrzmjEzwZpDXoRNlh4M-17" value="&lt;font style=&quot;font-size: 16px;&quot;&gt;Робертс&lt;/font&gt;" style="ellipse;whiteSpace=wrap;html=1;aspect=fixed;" vertex="1" parent="gqrzmjEzwZpDXoRNlh4M-16">
          <mxGeometry width="80" height="80" as="geometry" />
        </mxCell>
        <mxCell id="gqrzmjEzwZpDXoRNlh4M-18" value="6" style="ellipse;whiteSpace=wrap;html=1;aspect=fixed;" vertex="1" parent="gqrzmjEzwZpDXoRNlh4M-16">
          <mxGeometry x="29" y="7" width="22" height="22" as="geometry" />
        </mxCell>
        <mxCell id="gqrzmjEzwZpDXoRNlh4M-19" value="" style="group" vertex="1" connectable="0" parent="1">
          <mxGeometry x="270" y="885" width="80" height="80" as="geometry" />
        </mxCell>
        <mxCell id="gqrzmjEzwZpDXoRNlh4M-20" value="&lt;font style=&quot;font-size: 16px;&quot;&gt;Рэнд&lt;/font&gt;" style="ellipse;whiteSpace=wrap;html=1;aspect=fixed;" vertex="1" parent="gqrzmjEzwZpDXoRNlh4M-19">
          <mxGeometry width="80" height="80" as="geometry" />
        </mxCell>
        <mxCell id="gqrzmjEzwZpDXoRNlh4M-21" value="7" style="ellipse;whiteSpace=wrap;html=1;aspect=fixed;" vertex="1" parent="gqrzmjEzwZpDXoRNlh4M-19">
          <mxGeometry x="29" y="7" width="22" height="22" as="geometry" />
        </mxCell>
        <mxCell id="gqrzmjEzwZpDXoRNlh4M-22" value="" style="group" vertex="1" connectable="0" parent="1">
          <mxGeometry x="143.5" y="885" width="101" height="106" as="geometry" />
        </mxCell>
        <mxCell id="gqrzmjEzwZpDXoRNlh4M-23" value="&lt;font style=&quot;font-size: 16px;&quot;&gt;&lt;br&gt;Сент-Экзюпери&lt;/font&gt;" style="ellipse;whiteSpace=wrap;html=1;aspect=fixed;" vertex="1" parent="gqrzmjEzwZpDXoRNlh4M-22">
          <mxGeometry width="95.95789473684209" height="95.95789473684209" as="geometry" />
        </mxCell>
        <mxCell id="gqrzmjEzwZpDXoRNlh4M-24" value="8" style="ellipse;whiteSpace=wrap;html=1;aspect=fixed;" vertex="1" parent="gqrzmjEzwZpDXoRNlh4M-22">
          <mxGeometry x="36.6125" y="9.274999999999999" width="26.388421052631575" height="26.388421052631575" as="geometry" />
        </mxCell>
        <mxCell id="gqrzmjEzwZpDXoRNlh4M-25" value="" style="group" vertex="1" connectable="0" parent="1">
          <mxGeometry x="377" y="885" width="80" height="80" as="geometry" />
        </mxCell>
        <mxCell id="gqrzmjEzwZpDXoRNlh4M-26" value="&lt;font style=&quot;font-size: 16px;&quot;&gt;Дойл&lt;/font&gt;" style="ellipse;whiteSpace=wrap;html=1;aspect=fixed;" vertex="1" parent="gqrzmjEzwZpDXoRNlh4M-25">
          <mxGeometry width="80" height="80" as="geometry" />
        </mxCell>
        <mxCell id="gqrzmjEzwZpDXoRNlh4M-27" value="9" style="ellipse;whiteSpace=wrap;html=1;aspect=fixed;" vertex="1" parent="gqrzmjEzwZpDXoRNlh4M-25">
          <mxGeometry x="29" y="7" width="22" height="22" as="geometry" />
        </mxCell>
        <mxCell id="qN_8D6SUZNQjUNxSLygL-1" value="" style="group" vertex="1" connectable="0" parent="1">
          <mxGeometry x="270" y="770" width="80" height="80" as="geometry" />
        </mxCell>
        <mxCell id="qN_8D6SUZNQjUNxSLygL-2" value="&lt;br&gt;&lt;br&gt;Атлант расправил плечи" style="whiteSpace=wrap;html=1;aspect=fixed;" vertex="1" parent="qN_8D6SUZNQjUNxSLygL-1">
          <mxGeometry width="80" height="80" as="geometry" />
        </mxCell>
        <mxCell id="qN_8D6SUZNQjUNxSLygL-3" value="7" style="whiteSpace=wrap;html=1;aspect=fixed;" vertex="1" parent="qN_8D6SUZNQjUNxSLygL-1">
          <mxGeometry x="26" width="28" height="28" as="geometry" />
        </mxCell>
        <mxCell id="qN_8D6SUZNQjUNxSLygL-4" value="" style="group" vertex="1" connectable="0" parent="1">
          <mxGeometry x="45" y="778" width="80" height="80" as="geometry" />
        </mxCell>
        <mxCell id="qN_8D6SUZNQjUNxSLygL-5" value="&lt;br&gt;Собачье сердце" style="whiteSpace=wrap;html=1;aspect=fixed;" vertex="1" parent="qN_8D6SUZNQjUNxSLygL-4">
          <mxGeometry x="-1.5" y="-7" width="80" height="80" as="geometry" />
        </mxCell>
        <mxCell id="qN_8D6SUZNQjUNxSLygL-6" value="9" style="whiteSpace=wrap;html=1;aspect=fixed;" vertex="1" parent="qN_8D6SUZNQjUNxSLygL-4">
          <mxGeometry x="26" width="28" height="28" as="geometry" />
        </mxCell>
        <mxCell id="qN_8D6SUZNQjUNxSLygL-7" value="" style="group" vertex="1" connectable="0" parent="1">
          <mxGeometry x="263.5" y="548.5" width="93" height="93" as="geometry" />
        </mxCell>
        <mxCell id="qN_8D6SUZNQjUNxSLygL-8" value="&lt;br&gt;&lt;br&gt;Гарри Поттер и философский камень" style="whiteSpace=wrap;html=1;aspect=fixed;" vertex="1" parent="qN_8D6SUZNQjUNxSLygL-7">
          <mxGeometry width="93" height="93" as="geometry" />
        </mxCell>
        <mxCell id="qN_8D6SUZNQjUNxSLygL-9" value="4" style="whiteSpace=wrap;html=1;aspect=fixed;" vertex="1" parent="qN_8D6SUZNQjUNxSLygL-7">
          <mxGeometry x="32.5" width="28" height="28" as="geometry" />
        </mxCell>
        <mxCell id="qN_8D6SUZNQjUNxSLygL-10" value="" style="group" vertex="1" connectable="0" parent="1">
          <mxGeometry x="-64" y="770" width="80" height="80" as="geometry" />
        </mxCell>
        <mxCell id="qN_8D6SUZNQjUNxSLygL-11" value="&lt;br&gt;Тень горы" style="whiteSpace=wrap;html=1;aspect=fixed;" vertex="1" parent="qN_8D6SUZNQjUNxSLygL-10">
          <mxGeometry width="80" height="80" as="geometry" />
        </mxCell>
        <mxCell id="qN_8D6SUZNQjUNxSLygL-12" value="6" style="whiteSpace=wrap;html=1;aspect=fixed;" vertex="1" parent="qN_8D6SUZNQjUNxSLygL-10">
          <mxGeometry x="26" width="28" height="28" as="geometry" />
        </mxCell>
        <mxCell id="qN_8D6SUZNQjUNxSLygL-13" value="" style="group" vertex="1" connectable="0" parent="1">
          <mxGeometry x="377" y="547" width="80" height="80" as="geometry" />
        </mxCell>
        <mxCell id="qN_8D6SUZNQjUNxSLygL-14" value="&lt;br&gt;Властелин колец" style="whiteSpace=wrap;html=1;aspect=fixed;" vertex="1" parent="qN_8D6SUZNQjUNxSLygL-13">
          <mxGeometry width="80" height="80" as="geometry" />
        </mxCell>
        <mxCell id="qN_8D6SUZNQjUNxSLygL-15" value="5" style="whiteSpace=wrap;html=1;aspect=fixed;" vertex="1" parent="qN_8D6SUZNQjUNxSLygL-13">
          <mxGeometry x="26" width="28" height="28" as="geometry" />
        </mxCell>
        <mxCell id="qN_8D6SUZNQjUNxSLygL-16" value="" style="group" vertex="1" connectable="0" parent="1">
          <mxGeometry x="380" y="770" width="80" height="80" as="geometry" />
        </mxCell>
        <mxCell id="qN_8D6SUZNQjUNxSLygL-17" value="&lt;br&gt;Шерлок Холмс" style="whiteSpace=wrap;html=1;aspect=fixed;" vertex="1" parent="qN_8D6SUZNQjUNxSLygL-16">
          <mxGeometry width="80" height="80" as="geometry" />
        </mxCell>
        <mxCell id="qN_8D6SUZNQjUNxSLygL-18" value="10" style="whiteSpace=wrap;html=1;aspect=fixed;" vertex="1" parent="qN_8D6SUZNQjUNxSLygL-16">
          <mxGeometry x="26" width="28" height="28" as="geometry" />
        </mxCell>
        <mxCell id="qN_8D6SUZNQjUNxSLygL-19" value="" style="group" vertex="1" connectable="0" parent="1">
          <mxGeometry x="154" y="548.5" width="80" height="80" as="geometry" />
        </mxCell>
        <mxCell id="qN_8D6SUZNQjUNxSLygL-20" value="&lt;br&gt;Преступление и наказание" style="whiteSpace=wrap;html=1;aspect=fixed;" vertex="1" parent="qN_8D6SUZNQjUNxSLygL-19">
          <mxGeometry width="80" height="80" as="geometry" />
        </mxCell>
        <mxCell id="qN_8D6SUZNQjUNxSLygL-21" value="3" style="whiteSpace=wrap;html=1;aspect=fixed;" vertex="1" parent="qN_8D6SUZNQjUNxSLygL-19">
          <mxGeometry x="26" width="28" height="28" as="geometry" />
        </mxCell>
        <mxCell id="qN_8D6SUZNQjUNxSLygL-22" value="" style="group" vertex="1" connectable="0" parent="1">
          <mxGeometry x="47" y="548.5" width="80" height="80" as="geometry" />
        </mxCell>
        <mxCell id="qN_8D6SUZNQjUNxSLygL-23" value="&lt;br&gt;Мастер и Маргарита" style="whiteSpace=wrap;html=1;aspect=fixed;" vertex="1" parent="qN_8D6SUZNQjUNxSLygL-22">
          <mxGeometry width="80" height="80" as="geometry" />
        </mxCell>
        <mxCell id="qN_8D6SUZNQjUNxSLygL-24" value="2" style="whiteSpace=wrap;html=1;aspect=fixed;" vertex="1" parent="qN_8D6SUZNQjUNxSLygL-22">
          <mxGeometry x="26" width="28" height="28" as="geometry" />
        </mxCell>
        <mxCell id="qN_8D6SUZNQjUNxSLygL-25" value="" style="group" vertex="1" connectable="0" parent="1">
          <mxGeometry x="-64" y="548.5" width="80" height="80" as="geometry" />
        </mxCell>
        <mxCell id="qN_8D6SUZNQjUNxSLygL-26" value="1984" style="whiteSpace=wrap;html=1;aspect=fixed;" vertex="1" parent="qN_8D6SUZNQjUNxSLygL-25">
          <mxGeometry width="80" height="80" as="geometry" />
        </mxCell>
        <mxCell id="qN_8D6SUZNQjUNxSLygL-27" value="1" style="whiteSpace=wrap;html=1;aspect=fixed;" vertex="1" parent="qN_8D6SUZNQjUNxSLygL-25">
          <mxGeometry x="26" width="28" height="28" as="geometry" />
        </mxCell>
        <mxCell id="qN_8D6SUZNQjUNxSLygL-28" value="" style="group" vertex="1" connectable="0" parent="1">
          <mxGeometry x="154" y="770" width="80" height="80" as="geometry" />
        </mxCell>
        <mxCell id="qN_8D6SUZNQjUNxSLygL-29" value="&lt;br&gt;Маленький принц" style="whiteSpace=wrap;html=1;aspect=fixed;" vertex="1" parent="qN_8D6SUZNQjUNxSLygL-28">
          <mxGeometry width="80" height="80" as="geometry" />
        </mxCell>
        <mxCell id="qN_8D6SUZNQjUNxSLygL-30" value="8" style="whiteSpace=wrap;html=1;aspect=fixed;" vertex="1" parent="qN_8D6SUZNQjUNxSLygL-28">
          <mxGeometry x="26" width="28" height="28" as="geometry" />
        </mxCell>
        <mxCell id="qN_8D6SUZNQjUNxSLygL-36" style="edgeStyle=none;curved=1;rounded=0;orthogonalLoop=1;jettySize=auto;html=1;exitX=0.5;exitY=1;exitDx=0;exitDy=0;entryX=0.5;entryY=0;entryDx=0;entryDy=0;fontSize=12;startSize=8;endSize=8;" edge="1" parent="1" source="qN_8D6SUZNQjUNxSLygL-26" target="gqrzmjEzwZpDXoRNlh4M-12">
          <mxGeometry relative="1" as="geometry" />
        </mxCell>
        <mxCell id="oyUdr-V_BMMyFG82pox9-1" style="edgeStyle=none;curved=1;rounded=0;orthogonalLoop=1;jettySize=auto;html=1;exitX=0.5;exitY=1;exitDx=0;exitDy=0;entryX=0.5;entryY=0;entryDx=0;entryDy=0;fontSize=12;startSize=8;endSize=8;" edge="1" parent="1" source="qN_8D6SUZNQjUNxSLygL-23" target="gqrzmjEzwZpDXoRNlh4M-8">
          <mxGeometry relative="1" as="geometry" />
        </mxCell>
        <mxCell id="oyUdr-V_BMMyFG82pox9-2" style="edgeStyle=none;curved=1;rounded=0;orthogonalLoop=1;jettySize=auto;html=1;exitX=0.5;exitY=1;exitDx=0;exitDy=0;entryX=0.5;entryY=0;entryDx=0;entryDy=0;fontSize=12;startSize=8;endSize=8;" edge="1" parent="1" source="qN_8D6SUZNQjUNxSLygL-20" target="gqrzmjEzwZpDXoRNlh4M-5">
          <mxGeometry relative="1" as="geometry" />
        </mxCell>
        <mxCell id="oyUdr-V_BMMyFG82pox9-3" style="edgeStyle=none;curved=1;rounded=0;orthogonalLoop=1;jettySize=auto;html=1;exitX=0.5;exitY=1;exitDx=0;exitDy=0;entryX=0.5;entryY=0;entryDx=0;entryDy=0;fontSize=12;startSize=8;endSize=8;" edge="1" parent="1" source="qN_8D6SUZNQjUNxSLygL-8" target="gqrzmjEzwZpDXoRNlh4M-2">
          <mxGeometry relative="1" as="geometry" />
        </mxCell>
        <mxCell id="oyUdr-V_BMMyFG82pox9-4" style="edgeStyle=none;curved=1;rounded=0;orthogonalLoop=1;jettySize=auto;html=1;exitX=0.5;exitY=1;exitDx=0;exitDy=0;entryX=0.5;entryY=0;entryDx=0;entryDy=0;fontSize=12;startSize=8;endSize=8;" edge="1" parent="1" source="qN_8D6SUZNQjUNxSLygL-14" target="gqrzmjEzwZpDXoRNlh4M-14">
          <mxGeometry relative="1" as="geometry" />
        </mxCell>
        <mxCell id="oyUdr-V_BMMyFG82pox9-6" style="edgeStyle=none;curved=1;rounded=0;orthogonalLoop=1;jettySize=auto;html=1;exitX=0.5;exitY=0;exitDx=0;exitDy=0;entryX=0.5;entryY=1;entryDx=0;entryDy=0;fontSize=12;startSize=8;endSize=8;" edge="1" parent="1" source="qN_8D6SUZNQjUNxSLygL-5" target="gqrzmjEzwZpDXoRNlh4M-8">
          <mxGeometry relative="1" as="geometry" />
        </mxCell>
        <mxCell id="oyUdr-V_BMMyFG82pox9-7" style="edgeStyle=none;curved=1;rounded=0;orthogonalLoop=1;jettySize=auto;html=1;exitX=0.5;exitY=0;exitDx=0;exitDy=0;entryX=0.5;entryY=1;entryDx=0;entryDy=0;fontSize=12;startSize=8;endSize=8;" edge="1" parent="1" source="gqrzmjEzwZpDXoRNlh4M-17" target="qN_8D6SUZNQjUNxSLygL-11">
          <mxGeometry relative="1" as="geometry" />
        </mxCell>
        <mxCell id="oyUdr-V_BMMyFG82pox9-9" style="edgeStyle=none;curved=1;rounded=0;orthogonalLoop=1;jettySize=auto;html=1;exitX=0.5;exitY=0;exitDx=0;exitDy=0;entryX=0.5;entryY=1;entryDx=0;entryDy=0;fontSize=12;startSize=8;endSize=8;" edge="1" parent="1" source="gqrzmjEzwZpDXoRNlh4M-20" target="qN_8D6SUZNQjUNxSLygL-2">
          <mxGeometry relative="1" as="geometry" />
        </mxCell>
        <mxCell id="oyUdr-V_BMMyFG82pox9-10" style="edgeStyle=none;curved=1;rounded=0;orthogonalLoop=1;jettySize=auto;html=1;exitX=0.5;exitY=0;exitDx=0;exitDy=0;fontSize=12;startSize=8;endSize=8;" edge="1" parent="1" source="gqrzmjEzwZpDXoRNlh4M-23" target="qN_8D6SUZNQjUNxSLygL-29">
          <mxGeometry relative="1" as="geometry" />
        </mxCell>
        <mxCell id="oyUdr-V_BMMyFG82pox9-11" style="edgeStyle=none;curved=1;rounded=0;orthogonalLoop=1;jettySize=auto;html=1;exitX=0.5;exitY=0;exitDx=0;exitDy=0;fontSize=12;startSize=8;endSize=8;" edge="1" parent="1" source="gqrzmjEzwZpDXoRNlh4M-26" target="qN_8D6SUZNQjUNxSLygL-17">
          <mxGeometry relative="1" as="geometry" />
        </mxCell>
      </root>
    </mxGraphModel>
  </diagram>
</mxfile>
